HIERARCHY
ROOT Hips
{
	OFFSET 0.000000 0.000000 0.000000
	CHANNELS 6 Xposition Yposition Zposition Zrotation Yrotation Xrotation 
	JOINT LHipJoint
	{
		OFFSET 0.000000 0.000000 0.000000
		CHANNELS 3 Zrotation Yrotation Xrotation
		JOINT LeftUpLeg
		{
			OFFSET 1.363060 -1.794630 0.839290
			CHANNELS 3 Zrotation Yrotation Xrotation
			JOINT LeftLeg
			{
				OFFSET 2.448110 -6.726130 0.000000
				CHANNELS 3 Zrotation Yrotation Xrotation
				JOINT LeftFoot
				{
					OFFSET 2.562200 -7.039590 0.000000
					CHANNELS 3 Zrotation Yrotation Xrotation
					JOINT LeftToeBase
					{
						OFFSET 0.157640 -0.433110 2.322550
						CHANNELS 3 Zrotation Yrotation Xrotation
						End Site
						{
							OFFSET 0.000000 0.000000 0.000000
						}
					}
				}
			}
		}
	}
	JOINT RHipJoint
	{
		OFFSET 0.000000 0.000000 0.000000
		CHANNELS 3 Zrotation Yrotation Xrotation
		JOINT RightUpLeg
		{
			OFFSET -1.305520 -1.794630 0.839290
			CHANNELS 3 Zrotation Yrotation Xrotation
			JOINT RightLeg
			{
				OFFSET -2.542530 -6.985550 0.000000
				CHANNELS 3 Zrotation Yrotation Xrotation
				JOINT RightFoot
				{
					OFFSET -2.568260 -7.056230 0.000000
					CHANNELS 3 Zrotation Yrotation Xrotation
					JOINT RightToeBase
					{
						OFFSET -0.164730 -0.452590 2.363150
						CHANNELS 3 Zrotation Yrotation Xrotation
						End Site
						{
							OFFSET 0.000000 0.000000 0.000000
						}
					}
				}
			}
		}
	}
	JOINT LowerBack
	{
		OFFSET 0.000000 0.000000 0.000000
		CHANNELS 3 Zrotation Yrotation Xrotation
		JOINT Spine
		{
			OFFSET 0.028270 2.035590 -0.193380
			CHANNELS 3 Zrotation Yrotation Xrotation
			JOINT Spine1
			{
				OFFSET 0.056720 2.048850 -0.042750
				CHANNELS 3 Zrotation Yrotation Xrotation
				JOINT Neck
				{
					OFFSET 0.000000 0.000000 0.000000
					CHANNELS 3 Zrotation Yrotation Xrotation
					JOINT Neck1
					{
						OFFSET -0.054170 1.746240 0.172020
						CHANNELS 3 Zrotation Yrotation Xrotation
						JOINT Head
						{
							OFFSET 0.104070 1.761360 -0.123970
							CHANNELS 3 Zrotation Yrotation Xrotation
							End Site
							{
								OFFSET 0.000000 0.000000 0.000000
							}
						}
					}
				}
				JOINT LeftShoulder
				{
					OFFSET 0.000000 0.000000 0.000000
					CHANNELS 3 Zrotation Yrotation Xrotation
					JOINT LeftArm
					{
						OFFSET 3.362410 1.200890 -0.311210
						CHANNELS 3 Zrotation Yrotation Xrotation
						JOINT LeftForeArm
						{
							OFFSET 4.983000 -0.000000 -0.000000
							CHANNELS 3 Zrotation Yrotation Xrotation
							JOINT LeftHand
							{
								OFFSET 3.483560 -0.000000 -0.000000
								CHANNELS 3 Zrotation Yrotation Xrotation
								JOINT LeftFingerBase
								{
									OFFSET 0.000000 0.000000 0.000000
									CHANNELS 3 Zrotation Yrotation Xrotation
									JOINT LeftHandIndex1
									{
										OFFSET 0.715260 -0.000000 -0.000000
										CHANNELS 3 Zrotation Yrotation Xrotation
										End Site
										{
											OFFSET 0.000000 0.000000 0.000000
										}
									}
								}
								JOINT LThumb
								{
									OFFSET 0.000000 0.000000 0.000000
									CHANNELS 3 Zrotation Yrotation Xrotation
									End Site
									{
										OFFSET 0.000000 0.000000 0.000000
									}
								}
							}
						}
					}
				}
				JOINT RightShoulder
				{
					OFFSET 0.000000 0.000000 0.000000
					CHANNELS 3 Zrotation Yrotation Xrotation
					JOINT RightArm
					{
						OFFSET -3.136600 1.374050 -0.404650
						CHANNELS 3 Zrotation Yrotation Xrotation
						JOINT RightForeArm
						{
							OFFSET -5.241900 -0.000000 -0.000000
							CHANNELS 3 Zrotation Yrotation Xrotation
							JOINT RightHand
							{
								OFFSET -3.444170 -0.000000 -0.000000
								CHANNELS 3 Zrotation Yrotation Xrotation
								JOINT RightFingerBase
								{
									OFFSET 0.000000 0.000000 0.000000
									CHANNELS 3 Zrotation Yrotation Xrotation
									JOINT RightHandIndex1
									{
										OFFSET -0.622530 -0.000000 -0.000000
										CHANNELS 3 Zrotation Yrotation Xrotation
										End Site
										{
											OFFSET 0.000000 0.000000 0.000000
										}
									}
								}
								JOINT RThumb
								{
									OFFSET 0.000000 0.000000 0.000000
									CHANNELS 3 Zrotation Yrotation Xrotation
									End Site
									{
										OFFSET 0.000000 0.000000 0.000000
									}
								}
							}
						}
					}
				}
			}
		}
	}
}
MOTION
Frames: 11
Frame Time: 0.008333
-0.754109 17.173679 9.778135 -0.542220 -1.640320 -3.263363 10.896055 -0.436660 0.396380 -21.158321 -27.260385 -19.009798 -3.192442 11.431094 22.176072 -2.839716 15.081697 2.054168 3.309400 11.179900 32.889000 -13.209110 -1.044219 -5.940861 35.228141 -3.015503 34.105167 3.355188 0.910702 3.410684 0.185124 -1.546428 -5.199817 -1.452800 7.618800 -21.562200 -0.460932 1.640069 13.299327 0.201419 1.769454 0.592081 2.933591 1.619209 -13.359358 -7.215215 -6.642262 -11.081773 6.037087 -8.651555 12.759630 1.058600 -3.939500 8.035700 -8.569272 0.198729 -0.443821 -77.466732 12.875214 20.991849 8.615056 -24.855708 -2.147378 -0.087718 2.399805 0.574662 4.183842 22.123469 1.453000 -7.125000 0.000000 0.000000 -23.152200 48.300800 -1.984400 11.278014 0.983518 -0.249913 63.503537 -3.809439 28.352913 -16.890264 36.142342 -4.522164 -0.832154 -0.155730 -0.483604 -11.655228 17.350347 -3.299800 7.125000 0.000000 0.000000 11.287200 -12.377100 8.781700 
-0.718235 17.162982 9.946700 -0.112637 -1.441732 -3.351835 10.894976 -0.350208 0.365055 -22.208003 -26.098345 -18.873925 -3.113895 11.540353 22.692964 -2.660383 14.533415 3.049292 3.250000 11.089100 32.581000 -13.185679 -1.070341 -5.947732 34.414660 -3.517245 34.608277 3.322466 0.933957 3.460341 0.241053 -1.645943 -4.502806 -1.587100 7.947200 -22.553800 -0.913458 1.594016 13.345027 0.141888 1.632519 0.552592 3.072435 1.595876 -13.431100 -7.183647 -6.630920 -11.024920 5.921302 -8.643451 12.853923 1.001000 -3.940300 8.059700 -8.547096 0.179122 -0.445566 -77.487219 12.830616 20.909053 8.489522 -24.697444 -2.113992 -0.059062 2.388429 0.714216 4.376034 21.967157 1.499700 -7.125000 0.000000 0.000000 -22.932000 48.191200 -1.898800 11.232214 1.020285 -0.272829 63.725667 -4.420004 27.764735 -16.255167 35.562996 -4.296758 -0.761816 -0.131484 0.210510 -10.990434 16.847674 -3.024900 7.125000 0.000000 0.000000 11.680100 -12.947900 8.958300 
-0.681713 17.143100 10.115912 0.308682 -1.150019 -3.342283 10.939277 -0.281748 0.290464 -23.199364 -25.091741 -18.904330 -3.034545 11.705075 23.269852 -2.450584 13.837863 3.797316 3.441500 11.377600 33.564100 -13.207111 -1.099401 -5.792151 34.328705 -3.387552 32.611132 2.936149 -0.852748 7.925232 0.130304 -1.090732 -5.265049 -1.863200 8.575100 -24.474900 -1.281462 1.545658 13.291481 0.041604 1.502818 0.495796 3.104956 1.569001 -13.511786 -7.222248 -6.645350 -10.859116 5.928337 -8.675432 12.899923 1.012300 -3.958600 8.056800 -8.523746 0.159602 -0.447081 -77.439840 12.715125 20.793777 8.283224 -24.429290 -2.063627 -0.049811 2.412851 0.962342 4.322041 22.226758 1.499200 -7.125000 0.000000 0.000000 -23.089100 48.400400 -2.037700 11.167518 1.063260 -0.297674 64.033863 -5.120951 27.048783 -15.555892 34.898149 -4.008918 -0.560743 -0.195032 0.863952 -9.216206 14.612457 -2.233800 7.125000 0.000000 0.000000 12.770600 -15.218200 9.205500 
-0.640436 17.133483 10.289663 0.845746 -0.915748 -3.350174 11.008998 -0.225926 0.215787 -24.321160 -24.238708 -18.886820 -2.949496 11.889915 23.869981 -2.303986 13.379805 4.459666 3.426500 11.355300 33.487900 -13.240014 -1.119248 -5.621100 34.166397 -2.994032 30.193404 2.319873 -2.897700 13.177439 -0.013315 -0.380173 -6.127477 -2.004800 8.876100 -25.408600 -1.721668 1.485798 13.180878 -0.067733 1.345347 0.486313 3.181713 1.530508 -13.495162 -7.378507 -6.704298 -10.660190 6.038282 -8.754466 12.769147 1.086300 -4.006500 7.978000 -8.493198 0.141239 -0.443240 -77.481712 12.498171 20.504477 8.010943 -24.069681 -1.994426 -0.023003 2.407701 1.186176 4.426850 22.107915 1.520500 -7.125000 0.000000 0.000000 -22.957100 48.308100 -1.970300 11.102171 1.096207 -0.317215 64.260972 -5.743684 26.488911 -14.878155 34.260693 -3.765673 -0.419295 -0.247135 1.357159 -8.120410 12.934459 -1.771100 7.125000 0.000000 0.000000 13.479700 -16.876800 9.247200 
-0.599808 17.125055 10.461253 1.181372 -0.800940 -3.367002 11.054380 -0.168923 0.157080 -25.169078 -23.373132 -18.828652 -2.847800 12.059720 24.475994 -2.130086 12.790885 5.157540 3.534700 11.514100 34.033900 -13.267915 -1.138042 -5.517787 33.723301 -3.125067 28.439703 1.761058 -4.302814 16.892879 -0.105502 0.561831 -5.902763 -1.931600 8.722200 -24.930200 -1.947675 1.470508 13.107707 -0.154342 1.286664 0.464775 3.144324 1.519030 -13.502127 -7.317855 -6.709592 -10.652167 6.050047 -8.772498 12.701045 1.079100 -4.012500 7.943800 -8.463069 0.114927 -0.440469 -77.428276 12.239676 20.325366 7.680257 -23.626623 -1.907158 0.019112 2.367958 1.360998 4.678599 21.652001 1.561200 -7.125000 0.000000 0.000000 -22.571100 47.954300 -1.728100 11.043238 1.137966 -0.338447 64.607552 -6.466404 25.780551 -14.376380 33.815801 -3.648083 -0.452190 -0.254975 1.608352 -8.781038 12.895936 -1.914000 7.125000 0.000000 0.000000 13.053600 -16.869300 8.940800 
-0.559720 17.117275 10.630250 1.455391 -0.632551 -3.346842 11.087862 -0.107113 0.097395 -25.947645 -22.411304 -18.795821 -2.748833 12.207103 25.047612 -1.907702 12.011783 5.948360 3.773800 11.853200 35.214600 -13.300135 -1.158685 -5.429377 33.205819 -3.466079 26.683845 1.175052 -5.573671 20.323683 -0.126090 1.210345 -5.142858 -2.258700 9.385400 -27.008600 -2.095668 1.467371 13.040776 -0.239096 1.259248 0.445530 3.063463 1.512198 -13.490889 -7.285643 -6.697751 -10.883358 6.064683 -8.737511 12.803364 1.075500 -3.984300 8.033400 -8.436370 0.095347 -0.438857 -77.291750 11.861682 20.392229 7.359736 -23.188558 -1.824309 0.051933 2.357397 1.583078 4.833249 21.550637 1.597300 -7.125000 0.000000 0.000000 -22.412200 47.888000 -1.676500 10.976620 1.191470 -0.360987 65.020298 -7.168323 24.752784 -13.753026 33.274563 -3.552697 -0.634543 -0.099846 1.682736 -10.385299 15.457291 -2.648300 7.125000 0.000000 0.000000 12.017700 -14.389000 8.854800 
-0.515202 17.117815 10.802272 1.562584 -0.392793 -3.369220 11.118043 -0.051859 0.044566 -26.618236 -21.584175 -18.654947 -2.647077 12.334009 25.583724 -1.706801 11.302061 6.722690 3.753000 11.824200 35.112900 -13.347414 -1.179928 -5.361360 32.742481 -4.000727 24.932991 0.573895 -6.746503 23.545353 -0.086676 1.587111 -3.830559 -2.440900 9.729700 -28.105800 -2.003659 1.398865 12.872890 -0.268713 1.184963 0.490782 2.988241 1.455593 -13.305153 -7.539051 -6.736054 -11.008858 6.179043 -8.736453 12.888053 1.167500 -3.987500 8.118200 -8.384904 0.079802 -0.434935 -77.381861 11.404426 20.095502 7.016519 -22.715113 -1.739843 0.099995 2.341322 2.082447 5.028407 21.312224 1.634000 -7.125000 0.000000 0.000000 -22.161700 47.704100 -1.550900 10.889918 1.217448 -0.382931 65.264054 -7.562254 23.779519 -12.762310 32.351141 -3.356282 -0.802402 0.073730 1.832123 -12.028703 17.822973 -3.476500 7.125000 0.000000 0.000000 11.023900 -12.071600 8.640000 
-0.473601 17.125163 10.966190 1.579887 -0.171590 -3.413521 11.160463 -0.017589 0.014228 -27.157682 -21.179601 -18.380269 -2.558933 12.437638 26.018138 -1.608922 10.943770 7.163825 3.648800 11.677800 34.601600 -13.407814 -1.193455 -5.301785 32.415322 -4.441425 23.142833 -0.048445 -7.867432 26.690424 -0.015580 1.633632 -2.282282 -1.946500 8.753700 -25.027900 -1.837877 1.337259 12.868573 -0.279220 1.130267 0.480119 2.886729 1.417316 -13.333316 -7.726629 -6.752065 -10.743367 6.273824 -8.756054 12.748049 1.248700 -4.013200 8.024200 -8.341519 0.047161 -0.426656 -77.431883 11.117803 19.780759 6.726366 -22.315238 -1.670139 0.135851 2.315770 2.536121 5.127861 21.018183 1.637700 -7.125000 0.000000 0.000000 -21.970200 47.465200 -1.401000 10.819354 1.235356 -0.411610 65.474331 -8.113470 22.813085 -11.883819 31.493338 -3.157678 -0.861087 0.150025 2.561343 -12.994620 18.363771 -3.862600 7.125000 0.000000 0.000000 10.436900 -11.504800 8.287700 
-0.427462 17.134888 11.137131 1.816243 0.071202 -3.392849 11.237544 0.003214 0.003713 -27.960627 -21.018329 -18.079235 -2.480791 12.568012 26.469901 -1.540900 10.654145 7.314591 3.408700 11.329000 33.397700 -13.455623 -1.211713 -5.248246 31.762117 -4.854249 21.351666 -0.708517 -8.900067 29.735110 0.046482 1.653514 -0.599028 -1.639100 8.070100 -22.927100 -1.837335 1.280143 12.727774 -0.359247 1.051525 0.458769 2.736025 1.376504 -13.297401 -7.705895 -6.798790 -10.545772 6.261510 -8.844660 12.687242 1.238800 -4.060300 7.963500 -8.311867 0.011643 -0.417627 -77.420844 10.877050 19.416019 6.532281 -22.046743 -1.630100 0.148703 2.330585 2.939933 5.052232 21.175240 1.626400 -7.125000 0.000000 0.000000 -22.096500 47.586700 -1.479100 10.756552 1.274076 -0.447457 65.853482 -8.956199 21.518767 -11.278642 30.906648 -3.037291 -0.889977 0.241345 3.724235 -13.604806 19.029432 -4.178100 7.125000 0.000000 0.000000 10.072000 -10.848700 8.126100 
-0.380458 17.140939 11.302886 2.081457 0.278341 -3.481689 11.309953 0.039418 -0.008427 -28.840374 -20.741075 -17.654359 -2.393896 12.682378 26.948346 -1.456956 10.243273 7.379011 2.990000 10.678800 31.204200 -13.500614 -1.233301 -5.198414 31.039555 -5.267011 19.630868 -1.397021 -9.869966 32.713522 0.122744 1.353463 1.423031 -1.534900 7.821400 -22.173000 -1.905420 1.231540 12.777638 -0.412153 0.975806 0.442231 2.658981 1.347667 -13.355508 -7.579427 -6.830931 -10.530753 6.057213 -8.903303 12.760470 1.119900 -4.092500 7.978000 -8.283275 -0.030218 -0.409285 -77.450134 10.662713 19.162547 6.382914 -21.843726 -1.603905 0.141127 2.396278 3.311086 4.794852 21.845104 1.599300 -7.125000 0.000000 0.000000 -22.575500 48.113700 -1.821200 10.714688 1.326382 -0.489428 66.118995 -9.906868 20.500669 -10.641434 30.277995 -2.917263 -0.944863 0.379033 4.247936 -14.282206 20.397990 -4.663200 7.125000 0.000000 0.000000 9.706100 -9.526800 8.085800 
-0.341343 17.139750 11.456539 1.903509 0.470989 -3.688280 11.341994 0.081553 -0.031679 -29.192295 -20.399510 -17.137957 -2.294594 12.742092 27.365684 -1.375060 9.801082 7.446712 2.682300 10.162200 29.503500 -13.581633 -1.242740 -5.149235 31.042404 -5.495921 18.048695 -2.057207 -10.812625 35.566763 0.229163 0.242655 3.732003 -1.378100 7.428600 -20.991400 -1.616418 1.165507 13.108920 -0.360182 0.940289 0.394331 2.570966 1.320839 -13.621972 -7.446990 -6.802693 -10.557713 5.852487 -8.874673 12.861047 1.004700 -4.081500 8.011700 -8.244746 -0.084431 -0.402711 -77.504485 10.388781 18.719010 6.106829 -21.455413 -1.543603 0.162259 2.390563 3.823550 4.739877 21.760231 1.574600 -7.125000 0.000000 0.000000 -22.588800 48.032000 -1.774800 10.681963 1.382264 -0.533335 66.326811 -10.881794 19.769246 -10.004930 29.633114 -2.784476 -0.979952 0.493559 4.455243 -14.702038 21.433281 -5.010200 7.125000 0.000000 0.000000 9.496300 -8.545400 8.094800 
